<?xml version="1.0" encoding="UTF-8"?>
<svg width="1543px" height="642.07px" enable-background="new 0 0 1542.977 642.07" version="1.1" viewBox="0 0 1542.977 642.07" xmlns="http://www.w3.org/2000/svg">
 <polygon points="1340.4 0 1225.4 247.93 1117.4 0 952.34 0 1141.4 383.68 1141.4 586.88 1292.4 586.88 1292.4 383.68 1494.4 0" fill="#9c0"/>
 <path d="m1094.3 397.7v-109.62l-7e-3 -0.015c-0.199-0.999-32.544-162.74-114.77-232.93l-3e-3 -7e-3c-15.08-2.029-31.97-3.123-51.11-3.123-15.247 0-29.717 0.875-43.208 2.822-25.756 3.718-47.948 11.349-65.186 24.28-27.109 18.883-42.703 50.914-42.703 101h113.32c0-29.761 2.693-57.504 33.146-62.445 3.149-0.511 6.596-0.778 10.367-0.778 41.867 0 46.797 25.441 46.797 60.75v32.035c-1.37-0.021-2.738-0.04-4.107-0.058-63.274-0.861-125.51 1.463-165.46 32.121h-1e-3c-27.068 20.758-43.922 54.512-43.922 109.17 0 63.138 22.563 116.85 81.906 129.43 1e-3 -0.021 3e-3 -0.04 4e-3 -0.061-1e-3 0.021-1e-3 0.039-2e-3 0.06 8.594 1.806 17.953 2.789 28.125 2.789 23.475 0 43.347-4.513 60.372-13.705 19.294-10.418 34.934-26.848 48.02-49.532h1.642l4.922 55.016h107.57c-2.4-25.46-5.7-51.72-5.7-77.19zm-170.83 13.96c-37.758 0-42.688-36.129-42.688-65.697 0-43.874 15.048-59.963 39.309-66.31 16.6-4.342 37.513-4.122 60.868-5.12 0 37.404 7.323 106.9-28.872 129.68-7.51 4.74-16.9 7.45-28.62 7.45z" fill="#fc0"/>
 <path d="m811.39 241.73c-16.593-17.618-40.265-28.642-74.202-28.642-41.672 0-70.272 12.25-93.969 47.383h-1.633v-216.53h-115.22l1e-3 589.95h109.5v-45.762h1.633c21.242 40.035 53.117 53.938 97.227 53.938 95.306 0 111.85-84.466 114.65-161.75m-112.19-56.42c0 103.78-7.352 147.09-49.03 147.09-39.211 0-46.57-43.313-46.57-147.09 0-82.525-0.82-139.71 46.57-139.71 49.84-0.01 49.03 57.18 49.03 139.71z" fill="#009"/>
 <path d="m526.37 238.9c-17.172-7.583-37.406-13.985-61.359-19.023-41.094-8.648-92.789-13.383-157.96-13.383-277.23 0-307.05 84.94-307.05 184.27 0 113.73 35.766 193.64 307.05 193.64 62.406 0 115.77-6.207 158.6-15.712 22.891-5.104 43.491-12.185 60.719-19.694 1.358-0.586 37.96-28.711 25.621-66.14-3.067-9.303-25.621-29.646-25.621-29.646h-60.081l-1.281-0.137h-68.54c0 31.977-14.891 66.526-89.422 66.526-92.414 0-95.391-64.78-95.391-107.98h314.71v1e-3c0 0.01 64.29-71.43 0-172.73zm-122.43 115.88h-192.28c0-30.957-1.492-85.664 95.391-85.664 99.86 0 96.89 50.38 96.89 85.66z" fill="#f00"/>
 <path d="m979.5 55.125l114.78 232.95v-97.305c0-65.71-14.3-122.08-114.8-135.66" fill="#990"/>
 <path d="m849.94 424.71c0-58.97 1.586-140.38-38.557-182.98-27.068 20.758-43.922 54.512-43.922 109.17 0 63.138 22.563 116.85 81.906 129.43 0.72-19.48 0.57-38.52 0.57-55.62" fill="#c60"/>
 <path d="m1519.6 18.079v-4.413h4.158c1.852 0 3.838 0 3.838 1.985 0 1.945-0.752 2.472-2.881 2.428h-5.1m0 3.546h2.781l4.274 7.911h4.875l-4.688-7.911c3.408-0.434 5.261-1.842 5.261-5.397 0-1.985-0.52-4.119-2.271-5.21-1.413-0.863-3.552-0.908-5.196-0.908h-9.292v19.426h4.259v-7.911h-0.1zm3.9 17.359c10.648 0 19.43-8.738 19.43-19.441 0-10.695-8.779-19.441-19.43-19.441-10.766 0-19.453 8.746-19.453 19.441 0.1 10.704 8.8 19.441 19.5 19.441zm0.1-35.163c8.26 0 15.729 6.563 15.729 15.723 0 9.113-7.469 15.727-15.729 15.727-8.365 0-15.719-6.613-15.719-15.727-0.1-9.16 7.3-15.723 15.7-15.723z"/>
 <g fill="#903">
  <path d="m610.93 453.22h-84.563v95.785c1.358-0.586 2.758-1.176 4.07-1.776 50.67-22.3 77.5-54.7 80.49-94"/>
  <path d="m614.09 411.64c4.742-74.125-6.352-136.85-87.727-172.73v172.73h87.73"/>
 </g>
</svg>
